<?xml version="1.0" encoding="utf-8"?>
<!-- Generator: Adobe Illustrator 24.2.1, SVG Export Plug-In . SVG Version: 6.00 Build 0)  -->
<svg version="1.1" id="Layer_1" xmlns="http://www.w3.org/2000/svg" xmlns:xlink="http://www.w3.org/1999/xlink" x="0px" y="0px"
	 viewBox="0 0 1920 1920" style="enable-background:new 0 0 1920 1920;" xml:space="preserve">
<style type="text/css">
	.st0{fill:#FFFFFF;}
</style>
<g>
	<g>
		<g>
			<path class="st0" d="M414.2,1281.7h92.1c50.4,0,79.2,9.1,107,33.1c22.6,20,36.5,49.5,36.5,77.6c0,21.3-8.2,44.9-21.6,63.1
				c-11.8,15-23.2,23.6-45.8,34.9l75.1,93.9h-99.8l-59.7-87.1v87.1h-83.9L414.2,1281.7L414.2,1281.7z M518.6,1435.6
				c26.8,0,47.3-18.6,47.3-42.2c0-23.1-20.6-40.8-47.9-40.8h-20.1v83.1L518.6,1435.6L518.6,1435.6z"/>
		</g>
		<g>
			<path class="st0" d="M671.7,1396.5V1377c0-56.7,51-102.6,113.7-102.6c33.5,0,67.4,14.1,88.5,37.2c18,20,25.2,39.5,25.2,69.9
				v202.8h-83.9v-117.1h-59.7v117.1h-83.9v-117.1 M815.3,1379.3c0-21.8-10.3-33.1-29.8-33.1c-19,0-29.8,12.3-29.8,33.1v17.2h59.7
				L815.3,1379.3L815.3,1379.3z"/>
		</g>
		<g>
			<path class="st0" d="M921.8,1281.7h69.5c67.4,0,107.6,12.3,144.1,44c34,29,51.5,65.8,51.5,107.6c0,42.2-18,79.9-52.5,108.9
				c-37.6,31.3-74.1,42.2-143.6,42.2h-69L921.8,1281.7L921.8,1281.7z M1005.7,1514.5c29.9-0.4,47.9-5.9,66.4-20.4
				c19.6-15,30.9-38.1,30.9-61.3s-11.8-45.8-32.4-61.3c-18-13.2-34.5-18.2-64.8-19.1L1005.7,1514.5L1005.7,1514.5z"/>
		</g>
		<g>
			<path class="st0" d="M1199.2,1584.4v-302.7h83.9v302.7L1199.2,1584.4L1199.2,1584.4z"/>
		</g>
		<g>
			<path class="st0" d="M1614.9,1435.6c0,84.9-73.2,156.1-160.2,156.1c-87.9,0-159.3-71.3-159.3-158.8s70.9-158.4,159.3-158.4
				C1544.4,1274.5,1614.9,1345.3,1614.9,1435.6z M1370,1432.8c0,47.7,38.4,87.1,85.1,87.1c45.8,0,85.1-39.5,85.1-85.8
				c0-49-37.5-88-85.1-88S1370,1384.3,1370,1432.8z"/>
		</g>
	</g>
	<path class="st0" d="M1532.7,878.3l-135.4-225.6c-28.7-63.1-67.4-122.7-116.2-171.9c4.7-4.8,7.4-11.3,7.4-18.4
		c0-15-12.3-27.2-27.2-27.2c14.9,0,27.2-12.3,27.2-27.2c0-15-12.3-27.2-27.2-27.2h-27.9c-2.2-163-46.4-307.7-110.8-360
		c-16.9-13.8-35-21-54.4-20.8v341.9c-4.3-9.2-13.7-15.5-24.5-15.5c-15,0-27.2,12.1-27.2,27.2c0-15.1-12.2-27.2-27.2-27.2
		s-27.2,12.1-27.2,27.2c0-15.1-12.2-27.2-27.2-27.2s-27.2,12.1-27.2,27.2V0c-19.3-0.2-37.5,7-54.4,20.8
		c-64.5,52.3-108.6,196.9-110.8,360h-45.9c-80.5-94.7-247.5-42.3-387.1-54.4C309,453.1,284,735.4,436.4,759.8
		c-11,19-17.6,42.2-18,69.6c1,58,29.6,97.1,67.9,117.5v52.5c0,18.7,15.3,34,34,34c18.7,0,34-15.3,34-34c0,18.7,15.2,34,34,34
		c18.7,0,34-15.3,34-34v-52.6c5-2.5,9.7-5.4,14.2-8.7c5.3,61.3,50,111.8,109.4,129.6c93.4,37.9,546,12.9,651.5,20
		c0,39.2,0.1,106.7,0,108.8c42.4-10.5,50.5-71.2,53.5-117.8c46.8-16.4,84.9-54.1,101.1-101.8c29.9,4.1,63.5-13.3,63-52.3
		C1615.6,876.9,1565.2,861.4,1532.7,878.3z M1097.9,735.1c-3.1,2.9-6.1,5.6-9.2,8.1c-0.5,0.5-1.1,1-1.6,1.4
		c-11.1,9.5-24.2,16.8-38.5,21.2c-0.2-0.2-0.5-0.3-0.8-0.4c-10.4,3.1-20.9,4.6-31.3,4.4c-40.6-0.5-78.3-24.5-99.7-58.5V630H1019
		c-2.2,5.9-3.4,12.7-3.3,20.3v2.3c0.3,13.7,4.9,24.6,12,32.8c21.4,24.4,65.9,23.8,86.2-1.8c6.3-7.9,10.2-18.2,10.5-30.9v-2.3
		c0.1-7.6-1.1-14.4-3.3-20.3h8c1.5,7.5,2.4,15,2.4,22.6C1132,682.6,1121.2,712.7,1097.9,735.1z"/>
	<g>
		<path class="st0" d="M544.1,1815.3c-6.7,13.3-16.4,23.9-29,31.8c-13,8.2-27.2,12.3-42.6,12.3c-10.9,0-21.2-2.1-31-6.2
			c-9.6-4.1-18.1-9.8-25.5-17.1c-7.5-7.5-13.2-15.9-17.3-25.4c-4.2-9.9-6.2-20.3-6.2-31.2c0-10.8,2.1-21.1,6.2-31.1
			c4-9.6,9.8-18.1,17.3-25.4c7.4-7.4,15.9-13.1,25.5-17.1c9.8-4.3,20.2-6.4,31-6.4c15.4,0,29.6,4.1,42.6,12.3
			c12.6,8,22.2,18.7,29,32l-15.7,6.7c-5.3-10.2-12.9-18.4-22.7-24.5c-10.1-6.3-21.2-9.4-33.1-9.4c-8.5,0-16.7,1.7-24.5,5
			c-7.6,3.2-14.3,7.7-20,13.4c-5.9,5.9-10.4,12.5-13.4,20c-3.3,7.8-5,15.9-5,24.5s1.6,16.7,5,24.5c3.1,7.6,7.6,14.3,13.4,20
			c5.8,5.9,12.4,10.4,20,13.6c7.8,3.3,16,5,24.5,5c12,0,23-3.2,33.1-9.4c9.8-6.2,17.4-14.4,22.7-24.7L544.1,1815.3z"/>
		<path class="st0" d="M696,1857.6h-16.5V1763c0-12.9-4.5-23.9-13.6-33.1c-9.3-9.2-20.4-13.8-33.3-13.8s-24,4.6-33.3,13.8
			c-9.1,9.2-13.6,20.2-13.6,33.1v94.6h-16.5v-230.2h16.5v92.2c11.8-12.9,27.5-19.6,46.9-20c17.5,0,32.4,6.2,44.8,18.6
			c12.4,12.4,18.6,27.3,18.6,44.8L696,1857.6L696,1857.6z"/>
		<path class="st0" d="M741.8,1662.8c-2.5-2.3-3.7-5.2-3.7-8.6c0-3.5,1.2-6.4,3.7-8.8c2.3-2.4,5.2-3.7,8.6-3.7
			c3.5,0,6.5,1.2,8.8,3.7c2.5,2.3,3.7,5.3,3.7,8.8c0,3.4-1.2,6.3-3.7,8.6c-2.3,2.4-5.3,3.7-8.8,3.7
			C747,1666.5,744.1,1665.3,741.8,1662.8z M742.3,1701.4h16.5v156.2h-16.5V1701.4z"/>
		<path class="st0" d="M804.7,1627.4h16.6v230.2h-16.6V1627.4z"/>
		<path class="st0" d="M934.1,1859.7c-22.1,0-40.9-7.8-56.5-23.5c-15.7-15.6-23.5-34.4-23.5-56.5c0-22.2,7.8-41.1,23.5-56.7
			c15.6-15.7,34.4-23.5,56.5-23.5c25.3,0,46.5,10.2,63.7,30.6v-28.5h16.5v156.1h-16.5v-28.5C981,1849.5,959.8,1859.7,934.1,1859.7z
			 M934.1,1715.8c-17.5,0-32.5,6.2-45,18.7c-12.4,12.5-18.6,27.5-18.6,45s6.2,32.5,18.6,45c12.5,12.4,27.5,18.6,45,18.6
			s32.5-6.2,45.1-18.6c12.4-12.5,18.6-27.5,18.6-45s-6.2-32.5-18.6-45C966.7,1722,951.6,1715.8,934.1,1715.8z"/>
		<path class="st0" d="M1187.3,1857.6h-16.5v-94.4c0-12.9-4.6-24-13.8-33.3c-9.2-9.2-20.2-13.8-33.1-13.8s-24,4.6-33.3,13.8
			c-9.2,9.3-13.8,20.4-13.8,33.3v94.4h-16.5v-156.2h16.5v18.3c12.3-13.2,27.9-19.9,47.1-20c17.5,0,32.4,6.2,44.7,18.7
			c12.5,12.3,18.7,27.2,18.7,44.8L1187.3,1857.6L1187.3,1857.6z"/>
		<path class="st0" d="M1367,1718h-29.9c19.5,16.7,29.5,37.5,29.9,62.6c0,22-7.7,40.7-23.2,56c-15.5,15.6-34.1,23.4-56,23.4
			c-3.1,0-7.5-0.4-13.1-1.3l-31.1,44.7h87.2v16.7h-118.8l45.6-65.9c-16.3-7.8-28.5-18-36.7-30.7c-8.3-12.9-12.5-27.2-12.5-42.7
			c0-21.9,7.7-40.5,23.2-55.8c15.5-15.6,34.2-23.4,56-23.4h79.2L1367,1718L1367,1718z M1287.8,1843.3c17.3,0,32.1-6.1,44.3-18.3
			c12.3-12.4,18.4-27.2,18.4-44.5c0-17.2-6.1-31.9-18.4-44.3c-12.3-12.2-27.1-18.3-44.3-18.3c-17.3,0-32.1,6.1-44.3,18.3
			c-12.3,12.4-18.4,27.2-18.4,44.3c0,17.3,6.1,32.1,18.4,44.5C1255.7,1837.3,1270.5,1843.3,1287.8,1843.3z"/>
		<path class="st0" d="M1467.3,1859.7c-22.1,0-40.9-7.8-56.5-23.5c-15.7-15.6-23.5-34.4-23.5-56.5c0-22.2,7.8-41.1,23.5-56.7
			c15.6-15.7,34.4-23.5,56.5-23.5c25.3,0,46.5,10.2,63.7,30.6v-28.5h16.5v156.1h-16.5v-28.5
			C1514.1,1849.5,1492.9,1859.7,1467.3,1859.7z M1467.3,1715.8c-17.5,0-32.5,6.2-45,18.7c-12.4,12.5-18.6,27.5-18.6,45
			s6.2,32.5,18.6,45c12.5,12.4,27.5,18.6,45,18.6s32.5-6.2,45.1-18.6c12.4-12.5,18.6-27.5,18.6-45s-6.2-32.5-18.6-45
			C1499.8,1722,1484.8,1715.8,1467.3,1715.8z"/>
	</g>
</g>
</svg>
