<?xml version="1.0" encoding="utf-8"?>
<!-- Generator: Adobe Illustrator 24.2.1, SVG Export Plug-In . SVG Version: 6.00 Build 0)  -->
<svg version="1.1" id="Layer_1" xmlns="http://www.w3.org/2000/svg" xmlns:xlink="http://www.w3.org/1999/xlink" x="0px" y="0px"
	 viewBox="0 0 1920 1920" style="enable-background:new 0 0 1920 1920;" xml:space="preserve">
<style type="text/css">
	.st0{fill:#D67832;}
	.st1{fill:#E6E7E8;}
	.st2{fill:#FFD522;}
	.st3{fill:#FFFFFF;}
	.st4{fill:#333333;}
	.st5{fill:#E06363;}
	.st6{fill:#963030;}
	.st7{fill:#34BEC1;}
	.st8{fill:#3434A5;}
</style>
<g>
	<path class="st0" d="M882.77,640.71v79.88H641.34c-11.89-270.81,56.54-523.33,161.54-608.54v528.66H882.77z"/>
	<path class="st1" d="M882.77,81.52v559.19h-79.88V112.05C827.72,91.84,854.33,81.13,882.77,81.52z"/>
	<path class="st0" d="M1358.66,720.59h-241.43v-79.88h79.88V112.05C1302.12,197.26,1370.56,449.78,1358.66,720.59z"/>
	<path class="st1" d="M1197.12,112.05v528.66h-79.88V81.52C1145.67,81.13,1172.28,91.84,1197.12,112.05z"/>
	<path class="st0" d="M495.74,1040.13h-13.67v-79.88C482.07,988.29,486.86,1015.19,495.74,1040.13z"/>
	<path class="st0" d="M1360.8,720.59v6.04c-2.57-2.04-5.15-4.08-7.72-6.04H1360.8z"/>
	<path class="st0" d="M495.74,1040.13h-13.67v-79.88C482.07,988.29,486.86,1015.19,495.74,1040.13z"/>
	<path class="st2" d="M1840.11,1439.55h-798.84v-266.28c78.48,1.39,160.17-54.23,159.77-133.14h399.42L1840.11,1439.55z"/>
	<g>
		<path class="st0" d="M1840.11,1439.55c0.59,133.35-110.47,240.56-239.65,239.65c-154.95-10.52-819.68,26.23-956.85-29.37
			c-89.64-26.9-156.65-104.74-161.27-198.21c-0.94-10.76,0.11-479.62-0.27-491.4c-0.9-129.15,106.29-240.23,239.65-239.63
			c0,0,631.35,0,631.35,0c108.81,81.48,191.08,195.82,247.38,319.54c-134.27,0.05-538.27-0.04-639.08,0
			c-73.68,0-70.74-91.42-78.91-18.2c-10.65,96.39,64.53,177.96,158.79,177.96v239.65H1840.11z"/>
	</g>
	<path class="st3" d="M881.49,1053.44c-1.82,105.72,106.67,185.23,206.81,152.67c-24.17-13.27-38.04-29.81-44.17-47.08
		c6.13,17.26,20.01,33.8,44.17,47.08c50.42-15.44,90.18-55.21,105.62-105.63c4.62-14.91,7.1-30.71,7.1-47.04
		C1197.47,843.45,885.08,843.44,881.49,1053.44z M1066.61,1078.07c21.03-20.81,51.62-31.92,80.24-21.75
		C1118.24,1046.16,1087.64,1057.26,1066.61,1078.07z"/>
	<path class="st4" d="M1400.74,943.6c0,34.99-28.25,63.24-63.24,63.24H894.81v126.48H705.08c-82.07,1.27-82.09-127.76,0.01-126.48
		c-0.01,0,63.24,0,63.24,0c-2.48-48.44-5.28-127.61,63.25-126.48c-0.01,0,505.93,0,505.93,0
		C1372.49,880.36,1400.74,908.61,1400.74,943.6z"/>
	<path class="st4" d="M1040.01,1039.24c-1.51-103.65,161.3-103.65,159.77,0.01C1201.29,1142.89,1038.48,1142.89,1040.01,1039.24z"/>
	<path class="st5" d="M522.01,640.71h878.73c21.97,0,39.94,17.97,39.94,39.94s-17.97,39.94-39.94,39.94H522.01
		C470.49,721.25,470.04,640.04,522.01,640.71z"/>
	<path class="st5" d="M522.01,720.59h878.73c21.97,0,39.94,17.97,39.94,39.94s-17.97,39.94-39.94,39.94H522.01
		C470.49,801.13,470.04,719.93,522.01,720.59z"/>
	<path class="st2" d="M641.84,880.36v319.54H215.79C-37.76,1193.72,1.84,754.15,2.77,560.82
		C279.8,584.87,630.11,436.02,641.84,880.36z"/>
	<g>
		<path class="st6" d="M561.96,1299.75c-4.48,262.52-394.98,262.48-399.42-0.01C167.02,1037.23,557.51,1037.27,561.96,1299.75z"/>
		<path class="st7" d="M512.03,1249.82c-0.88,195.88-298.71,195.87-299.57-0.01C213.34,1053.94,511.17,1053.96,512.03,1249.82z"/>
		<path class="st8" d="M312.32,1599.32c-27.46,0-49.93-22.47-49.93-49.93v-199.71c0-27.46,22.47-49.93,49.93-49.93
			c27.46,0,49.93,22.47,49.93,49.93v199.71C362.24,1576.85,339.78,1599.32,312.32,1599.32z"/>
		<path class="st8" d="M412.17,1299.75c27.46,0,49.93,22.47,49.93,49.93v199.71c0,27.46-22.47,49.93-49.93,49.93
			c-27.46,0-49.93-22.47-49.93-49.93v-199.71C362.24,1322.22,384.71,1299.75,412.17,1299.75z"/>
	</g>
	<path class="st7" d="M1760.22,1439.55c-1.51-103.65,161.3-103.65,159.77,0.01C1921.5,1543.2,1758.69,1543.2,1760.22,1439.55z"/>
	<path class="st1" d="M1680.34,1639.26c-3.37,69.29-9.03,182.21-79.88,199.71c0.19-4.26-0.13-189.34,0-199.71
		C1599.74,1587.49,1681.06,1587.43,1680.34,1639.26z"/>
	<path class="st8" d="M921.44,880.36c-22.06,0-39.94-17.88-39.94-39.94V600.76c0-22.06,17.88-39.94,39.94-39.94
		c22.06,0,39.94,17.88,39.94,39.94v239.65C961.38,862.48,943.49,880.36,921.44,880.36z"/>
	<path class="st8" d="M1001.32,560.82c22.06,0,39.94,17.88,39.94,39.94v239.65c0,22.06-17.88,39.94-39.94,39.94
		c-22.06,0-39.94-17.88-39.94-39.94V600.76C961.38,578.7,979.26,560.82,1001.32,560.82z"/>
	<path class="st8" d="M1081.2,560.82c22.06,0,39.94,17.88,39.94,39.94v239.65c0,22.06-17.88,39.94-39.94,39.94
		c-22.06,0-39.94-17.88-39.94-39.94V600.76C1041.26,578.7,1059.14,560.82,1081.2,560.82z"/>
	<path class="st7" d="M802.88,361.11c-0.76-51.82,80.65-51.82,79.88,0C883.52,412.93,802.12,412.93,802.88,361.11z"/>
	<path class="st7" d="M1117.23,361.11c-0.76-51.82,80.65-51.82,79.88,0C1197.87,412.93,1116.47,412.93,1117.23,361.11z"/>
</g>
</svg>
