<?xml version="1.0" encoding="utf-8"?>
<!-- Generator: Adobe Illustrator 24.2.1, SVG Export Plug-In . SVG Version: 6.00 Build 0)  -->
<svg version="1.1" id="Layer_1" xmlns="http://www.w3.org/2000/svg" xmlns:xlink="http://www.w3.org/1999/xlink" x="0px" y="0px"
	 viewBox="0 0 1920 1920" style="enable-background:new 0 0 1920 1920;" xml:space="preserve">
<style type="text/css">
	.st0{fill:#FFFFFF;}
</style>
<g>
	<g>
		<path class="st0" d="M1.1,767.1h77.2c42.3,0,66.4,7.6,89.8,27.8c19,16.7,30.6,41.5,30.6,65.1c0,17.9-6.9,37.7-18.1,52.9
			c-9.9,12.6-19.4,19.8-38.4,29.3l63,78.8h-83.7l-50.1-73.1v73.1H1.1V767.1z M88.8,896.1c22.4,0,39.7-15.6,39.7-35.4
			c0-19.4-17.3-34.3-40.1-34.3H71.5v69.6H88.8z"/>
	</g>
	<g>
		<path class="st0" d="M217.1,863.4V847c0-47.6,42.7-86,95.4-86c28,0,56.5,11.8,74.2,31.2c15.1,16.7,21.1,33.1,21.1,58.6v170.1
			h-70.3v-98.2h-50.1v98.2h-70.3v-98.2 M337.5,848.9c0-18.3-8.6-27.8-25-27.8c-16,0-25,10.3-25,27.8v14.5h50.1V848.9z"/>
	</g>
	<g>
		<path class="st0" d="M426.8,767.1h58.3c56.5,0,90.2,10.3,120.8,36.9c28.5,24.3,43.2,55.2,43.2,90.2c0,35.4-15.1,67-44,91.3
			c-31.5,26.3-62.1,35.4-120.4,35.4h-57.8V767.1z M497.2,962.3c25-0.4,40.1-5,55.7-17.1c16.4-12.6,25.9-32,25.9-51.4
			s-9.9-38.4-27.2-51.4c-15.1-11-28.9-15.2-54.4-16L497.2,962.3L497.2,962.3z"/>
	</g>
	<g>
		<path class="st0" d="M659.4,1020.9V767.1h70.3v253.8H659.4z"/>
	</g>
	<g>
		<path class="st0" d="M1008,896.1c0,71.2-61.4,130.9-134.3,130.9c-73.7,0-133.6-59.7-133.6-133.2S799.6,761,873.7,761
			C948.9,761,1008,820.4,1008,896.1z M802.7,893.8c0,40,32.2,73.1,71.4,73.1c38.4,0,71.4-33.1,71.4-71.9c0-41.1-31.5-73.8-71.4-73.8
			C834.2,821.2,802.7,853.1,802.7,893.8z"/>
	</g>
</g>
<path class="st0" d="M1870.3,1129.4l-81.8-136.3c-17.3-38.1-40.7-74.1-70.2-103.8c2.8-2.9,4.5-6.8,4.5-11.1
	c0-9.1-7.4-16.4-16.4-16.4c9,0,16.4-7.4,16.4-16.4c0-9.1-7.4-16.4-16.4-16.4h-16.8c-1.3-98.5-28-185.9-66.9-217.5
	c-10.2-8.3-21.2-12.7-32.9-12.6v206.6c-2.6-5.6-8.3-9.4-14.8-9.4c-9.1,0-16.4,7.3-16.4,16.4c0-9.1-7.4-16.4-16.4-16.4
	s-16.4,7.3-16.4,16.4c0-9.1-7.4-16.4-16.4-16.4s-16.4,7.3-16.4,16.4V598.8c-11.7-0.1-22.7,4.2-32.9,12.6
	c-38.9,31.6-65.6,119-66.9,217.5h-27.8c-48.7-57.2-149.5-25.5-233.9-32.9c-0.4,76.6-15.5,247.2,76.6,261.9
	c-6.6,11.5-10.6,25.5-10.9,42.1c0.6,35,17.9,58.7,41.1,71v31.7c0,11.3,9.3,20.5,20.5,20.5c11.3,0,20.6-9.3,20.6-20.5
	c0,11.3,9.2,20.5,20.5,20.5c11.3,0,20.5-9.3,20.5-20.5v-31.8c3-1.5,5.8-3.3,8.6-5.3c3.2,37,30.2,67.6,66.1,78.3
	c56.4,22.9,329.9,7.8,393.6,12.1c0,23.7,0.1,64.4,0,65.7c25.6-6.3,30.5-43,32.3-71.2c28.3-9.9,51.3-32.7,61.1-61.5
	c18.1,2.5,38.4-8.1,38.1-31.6C1920.4,1128.6,1889.9,1119.2,1870.3,1129.4z M1607.7,1042.9c-1.8,1.8-3.7,3.4-5.6,4.9
	c-0.3,0.3-0.6,0.6-1,0.8c-6.7,5.8-14.6,10.1-23.2,12.8c-0.1-0.1-0.3-0.2-0.5-0.2c-6.3,1.9-12.7,2.8-18.9,2.7
	c-24.5-0.3-47.3-14.8-60.3-35.3v-49.1h61.7c-1.3,3.6-2.1,7.7-2,12.3v1.4c0.2,8.3,2.9,14.9,7.3,19.8c12.9,14.7,39.8,14.4,52.1-1.1
	c3.8-4.8,6.2-11,6.3-18.7v-1.4c0.1-4.6-0.6-8.7-2-12.3h4.8c0.9,4.5,1.4,9.1,1.4,13.7C1628.2,1011.2,1621.7,1029.3,1607.7,1042.9z"/>
<g>
	<path class="st0" d="M127.1,1214.6c-5.6,11.2-13.7,20.1-24.3,26.7c-10.9,6.9-22.8,10.3-35.7,10.3c-9.1,0-17.8-1.7-26-5.2
		c-8-3.4-15.2-8.2-21.3-14.4c-6.3-6.3-11.1-13.4-14.5-21.3c-3.5-8.3-5.2-17-5.2-26.2c0-9,1.7-17.7,5.2-26
		c3.4-8.1,8.2-15.2,14.5-21.3c6.2-6.2,13.3-11,21.3-14.4c8.2-3.6,16.9-5.4,26-5.4c12.9,0,24.8,3.4,35.7,10.3
		c10.6,6.7,18.7,15.7,24.3,26.8l-13.2,5.6c-4.5-8.6-10.8-15.4-19.1-20.5c-8.5-5.3-17.8-7.9-27.8-7.9c-7.2,0-14,1.4-20.5,4.2
		c-6.4,2.7-12,6.4-16.8,11.3c-4.9,4.9-8.7,10.5-11.3,16.8c-2.8,6.5-4.2,13.4-4.2,20.5c0,7.2,1.4,14,4.2,20.5
		c2.6,6.3,6.4,11.9,11.3,16.8c4.8,4.9,10.4,8.7,16.8,11.4c6.5,2.8,13.4,4.2,20.5,4.2c10,0,19.3-2.6,27.8-7.9
		c8.2-5.2,14.6-12.1,19.1-20.7L127.1,1214.6z"/>
	<path class="st0" d="M254.5,1250h-13.8v-79.3c0-10.8-3.8-20.1-11.4-27.8c-7.8-7.7-17.1-11.5-27.9-11.5c-10.8,0-20.1,3.8-27.9,11.5
		c-7.6,7.7-11.4,17-11.4,27.8v79.3h-13.8v-193H162v77.3c9.9-10.8,23-16.4,39.3-16.8c14.7,0,27.2,5.2,37.6,15.6
		c10.4,10.4,15.6,22.9,15.6,37.6L254.5,1250L254.5,1250z"/>
	<path class="st0" d="M292.9,1086.7c-2.1-2-3.1-4.4-3.1-7.3c0-2.9,1-5.4,3.1-7.4c2-2.1,4.4-3.1,7.3-3.1c3,0,5.4,1,7.4,3.1
		c2.1,2,3.1,4.4,3.1,7.4c0,2.9-1,5.3-3.1,7.3c-2,2.1-4.4,3.1-7.4,3.1C297.2,1089.8,294.8,1088.7,292.9,1086.7z M293.3,1119h13.8v131
		h-13.8V1119z"/>
	<path class="st0" d="M345.6,1057h14v193h-14V1057z"/>
	<path class="st0" d="M454.2,1251.8c-18.5,0-34.3-6.6-47.4-19.7c-13.2-13.1-19.7-28.8-19.7-47.4c0-18.6,6.6-34.4,19.7-47.5
		c13.1-13.2,28.9-19.7,47.4-19.7c21.2,0,39,8.5,53.4,25.6v-23.9h13.8V1250h-13.8v-23.9C493.4,1243.2,475.6,1251.8,454.2,1251.8z
		 M454.2,1131.1c-14.7,0-27.2,5.2-37.7,15.7c-10.4,10.5-15.6,23-15.6,37.7c0,14.7,5.2,27.2,15.6,37.7c10.5,10.4,23,15.6,37.7,15.6
		s27.3-5.2,37.9-15.6c10.4-10.5,15.6-23,15.6-37.7c0-14.7-5.2-27.2-15.6-37.7C481.5,1136.3,468.8,1131.1,454.2,1131.1z"/>
	<path class="st0" d="M666.5,1250h-13.8v-79.2c0-10.8-3.8-20.1-11.5-27.9c-7.7-7.7-17-11.5-27.8-11.5c-10.8,0-20.1,3.8-27.9,11.5
		c-7.7,7.8-11.5,17.1-11.5,27.9v79.2h-13.8v-131h13.8v15.3c10.3-11.1,23.4-16.7,39.5-16.8c14.7,0,27.2,5.2,37.4,15.7
		c10.5,10.3,15.7,22.8,15.7,37.6L666.5,1250L666.5,1250z"/>
	<path class="st0" d="M817.1,1133H792c16.4,14,24.7,31.4,25.1,52.5c0,18.4-6.5,34.1-19.5,47c-13,13.1-28.6,19.6-47,19.6
		c-2.6,0-6.3-0.4-11-1.1l-26,37.4h73.1v14h-99.6l38.3-55.3c-13.7-6.5-23.9-15.1-30.7-25.8c-7-10.8-10.5-22.8-10.5-35.8
		c0-18.3,6.5-33.9,19.5-46.8c13-13.1,28.6-19.6,47-19.6h66.4L817.1,1133L817.1,1133z M750.7,1238.1c14.5,0,26.9-5.1,37.2-15.3
		c10.3-10.4,15.4-22.8,15.4-37.3c0-14.4-5.2-26.8-15.4-37.2c-10.3-10.2-22.7-15.3-37.2-15.3c-14.5,0-26.9,5.1-37.2,15.3
		c-10.3,10.4-15.4,22.8-15.4,37.2c0,14.5,5.1,26.9,15.4,37.3C723.8,1233,736.2,1238.1,750.7,1238.1z"/>
	<path class="st0" d="M901.2,1251.8c-18.5,0-34.3-6.6-47.4-19.7c-13.2-13.1-19.7-28.8-19.7-47.4c0-18.6,6.6-34.4,19.7-47.5
		c13.1-13.2,28.8-19.7,47.4-19.7c21.2,0,39,8.5,53.4,25.6v-23.9h13.8V1250h-13.8v-23.9C940.5,1243.2,922.7,1251.8,901.2,1251.8z
		 M901.2,1131.1c-14.7,0-27.2,5.2-37.7,15.7c-10.4,10.5-15.6,23-15.6,37.7c0,14.7,5.2,27.2,15.6,37.7c10.5,10.4,23,15.6,37.7,15.6
		s27.3-5.2,37.8-15.6c10.4-10.5,15.6-23,15.6-37.7c0-14.7-5.2-27.2-15.6-37.7C928.5,1136.3,915.9,1131.1,901.2,1131.1z"/>
</g>
</svg>
