<?xml version="1.0" encoding="utf-8"?>
<!-- Generator: Adobe Illustrator 24.2.1, SVG Export Plug-In . SVG Version: 6.00 Build 0)  -->
<svg version="1.1" id="Layer_1" xmlns="http://www.w3.org/2000/svg" xmlns:xlink="http://www.w3.org/1999/xlink" x="0px" y="0px"
	 viewBox="0 0 1920 1920" style="enable-background:new 0 0 1920 1920;" xml:space="preserve">
<g>
	<path d="M1799.01,1371.33l-198.88-331.46c-42.18-92.71-98.96-180.14-170.56-252.44c6.66-7.14,10.83-16.63,10.83-27.11
		c0-21.97-17.98-39.94-39.94-39.94c21.96,0,39.94-17.97,39.94-39.93c0-21.97-17.98-39.94-39.94-39.94h-41.08
		c-3.26-239.28-67.95-451.82-162.51-528.56c-24.84-20.2-51.44-30.91-79.87-30.53v502.18c-6.4-13.53-20.06-22.96-36.02-22.96
		c-22.05,0-39.93,17.88-39.93,39.94c0-22.06-17.88-39.94-39.94-39.94s-39.94,17.88-39.94,39.94c0-22.06-17.88-39.94-39.93-39.94
		c-22.06,0-39.94,17.88-39.94,39.94v39.93h-1.5V81.44c-28.43-0.39-55.03,10.33-79.87,30.53c-94.56,76.74-159.24,289.28-162.5,528.56
		h-66.58C452.47,501.89,207.64,578.45,2.74,560.66c-0.89,186.22-37.55,600.77,186.43,636.4c-16.13,27.94-26,62.03-26.68,102.38
		c1.44,85.09,43.55,142.42,99.83,172.34v77.27c0,27.45,22.46,49.92,49.92,49.92c27.46,0,49.92-22.46,49.92-49.92
		c0,27.45,22.47,49.92,49.92,49.92c27.45,0,49.92-22.46,49.92-49.92v-77.27c7.32-3.89,14.47-8.08,21.25-12.91
		c7.82,90,73.08,164.44,160.23,190.59c137.13,55.59,801.67,18.86,956.64,29.37c0.03,57.53,0.17,156.63,0.03,159.74
		c62.36-15.41,74.2-104.7,78.44-173.11c68.89-24.14,124.63-79.4,148.48-149.53c44.05,6.03,93.39-19.42,92.55-76.69
		C1920.64,1369.15,1846.63,1346.63,1799.01,1371.33z"/>
</g>
</svg>
