<?xml version="1.0" encoding="utf-8"?>
<!-- Generator: Adobe Illustrator 24.2.1, SVG Export Plug-In . SVG Version: 6.00 Build 0)  -->
<svg version="1.1" id="Layer_1" xmlns="http://www.w3.org/2000/svg" xmlns:xlink="http://www.w3.org/1999/xlink" x="0px" y="0px"
	 viewBox="0 0 1920 1920" style="enable-background:new 0 0 1920 1920;" xml:space="preserve">
<style type="text/css">
	.st0{fill:#FFFFFF;}
</style>
<g>
	<path class="st0" d="M879.8,81.4c-28.4-0.4-55,10.3-79.9,30.5c-94.6,76.7-159.2,289.3-162.5,528.6h-66.6
		C452.5,501.9,207.6,578.5,2.7,560.7c-0.9,186.2-37.5,600.8,186.4,636.4c-16.1,27.9-26,62-26.7,102.4
		c1.4,85.1,43.6,142.4,99.8,172.3v77.3c0,27.4,22.5,49.9,49.9,49.9s49.9-22.5,49.9-49.9c0,27.4,22.5,49.9,49.9,49.9
		c27.5,0,49.9-22.5,49.9-49.9v-77.3c7.3-3.9,14.5-8.1,21.3-12.9c7.8,90,73.1,164.4,160.2,190.6c137.1,55.6,801.7,18.9,956.6,29.4
		c0,57.5,0.2,156.6,0,159.7c62.4-15.4,74.2-104.7,78.4-173.1c68.9-24.1,124.6-79.4,148.5-149.5c44.1,6,93.4-19.4,92.6-76.7
		c1-70.1-73-92.6-120.6-67.9l-198.9-331.5c-42.2-92.7-99-180.1-170.6-252.4c6.7-7.1,10.8-16.6,10.8-27.1c0-22-18-39.9-39.9-39.9
		c22,0,39.9-18,39.9-39.9c0-22-18-39.9-39.9-39.9h-41.1c-3.3-239.3-67.9-451.8-162.5-528.6C1172,91.8,1145.4,81,1117,81.4v502.2
		c-6.4-13.5-20.1-23-36-23c-22.1,0-39.9,17.9-39.9,39.9c0-22.1-17.9-39.9-39.9-39.9s-39.9,17.9-39.9,39.9
		c0-22.1-17.9-39.9-39.9-39.9c-22.1,0-39.9,17.9-39.9,39.9L879.8,81.4z"/>
</g>
</svg>
