<?xml version="1.0" encoding="utf-8"?>
<!-- Generator: Adobe Illustrator 24.2.1, SVG Export Plug-In . SVG Version: 6.00 Build 0)  -->
<svg version="1.1" id="Layer_1" xmlns="http://www.w3.org/2000/svg" xmlns:xlink="http://www.w3.org/1999/xlink" x="0px" y="0px"
	 viewBox="0 0 1920 1920" style="enable-background:new 0 0 1920 1920;" xml:space="preserve">
<g>
	<g>
		<path d="M1.15,767.12h77.24c42.29,0,66.45,7.61,89.76,27.78c18.98,16.74,30.64,41.48,30.64,65.07c0,17.89-6.91,37.67-18.12,52.89
			c-9.93,12.56-19.42,19.79-38.41,29.3l63.01,78.77h-83.72l-50.06-73.06v73.06H1.15V767.12z M88.75,896.12
			c22.44,0,39.7-15.6,39.7-35.39c0-19.41-17.26-34.25-40.13-34.25H71.48v69.64H88.75z"/>
	</g>
	<g>
		<path d="M217.1,863.4v-16.36c0-47.57,42.72-86,95.36-86c28.05,0,56.53,11.8,74.22,31.2c15.1,16.74,21.15,33.11,21.15,58.6v170.1
			h-70.34v-98.18h-50.06v98.18H217.1v-98.18 M337.49,848.94c0-18.27-8.63-27.78-25.03-27.78c-15.97,0-25.03,10.27-25.03,27.78v14.46
			h50.06V848.94z"/>
	</g>
	<g>
		<path d="M426.82,767.12h58.25c56.53,0,90.19,10.27,120.83,36.91c28.48,24.35,43.15,55.18,43.15,90.19
			c0,35.39-15.1,66.97-44.02,91.33c-31.5,26.26-62.14,35.39-120.39,35.39h-57.82V767.12z M497.16,962.34
			c25.03-0.38,40.13-4.95,55.66-17.12c16.4-12.56,25.9-31.97,25.9-51.37s-9.93-38.43-27.19-51.37
			c-15.1-11.04-28.91-15.22-54.37-15.98V962.34z"/>
	</g>
	<g>
		<path d="M659.43,1020.94V767.12h70.34v253.82H659.43z"/>
	</g>
	<g>
		<path d="M1008.01,896.12c0,71.16-61.4,130.9-134.33,130.9c-73.69,0-133.56-59.74-133.56-133.19s59.49-132.81,133.56-132.81
			C948.91,761.03,1008.01,820.4,1008.01,896.12z M802.68,893.84c0,39.96,32.24,73.06,71.39,73.06c38.38,0,71.39-33.11,71.39-71.92
			c0-41.1-31.47-73.82-71.39-73.82C834.15,821.16,802.68,853.12,802.68,893.84z"/>
	</g>
</g>
<path d="M1870.33,1129.41l-81.79-136.33c-17.35-38.11-40.73-74.1-70.19-103.84c2.81-2.9,4.46-6.81,4.46-11.14
	c0-9.07-7.41-16.43-16.43-16.43c9.02,0,16.43-7.41,16.43-16.43c0-9.07-7.41-16.43-16.43-16.43h-16.85
	c-1.33-98.5-28.03-185.9-66.92-217.48c-10.22-8.33-21.17-12.7-32.86-12.57v206.57c-2.62-5.57-8.29-9.39-14.82-9.39
	c-9.07,0-16.43,7.32-16.43,16.43c0-9.11-7.36-16.43-16.43-16.43s-16.43,7.32-16.43,16.43c0-9.11-7.36-16.43-16.43-16.43
	s-16.43,7.32-16.43,16.43V598.76c-11.69-0.14-22.65,4.23-32.86,12.57c-38.94,31.57-65.63,118.98-66.92,217.48h-27.75
	c-48.65-57.21-149.54-25.54-233.91-32.86c-0.37,76.59-15.46,247.16,76.63,261.89c-6.63,11.46-10.63,25.5-10.91,42.07
	c0.6,35.03,17.9,58.68,41.06,70.97v31.71c0,11.28,9.25,20.53,20.53,20.53c11.32,0,20.57-9.25,20.57-20.53
	c0,11.28,9.21,20.53,20.53,20.53c11.28,0,20.53-9.25,20.53-20.53v-31.76c2.99-1.52,5.85-3.27,8.56-5.25
	c3.22,37.01,30.24,67.57,66.09,78.29c56.43,22.88,329.87,7.78,393.62,12.11c0,23.7,0.05,64.44,0,65.73
	c25.64-6.35,30.52-43.04,32.31-71.16c28.31-9.9,51.27-32.68,61.08-61.54c18.09,2.49,38.39-8.05,38.06-31.62
	C1920.41,1128.58,1889.94,1119.23,1870.33,1129.41z M1607.66,1042.88c-1.84,1.75-3.68,3.41-5.57,4.88c-0.32,0.32-0.64,0.6-0.97,0.83
	c-6.72,5.75-14.59,10.13-23.24,12.8c-0.14-0.09-0.32-0.18-0.46-0.23c-6.31,1.89-12.66,2.76-18.92,2.67
	c-24.53-0.32-47.32-14.82-60.25-35.35V979.4h61.72c-1.33,3.59-2.07,7.69-1.98,12.29v1.38c0.18,8.28,2.95,14.87,7.27,19.79
	c12.93,14.73,39.81,14.36,52.1-1.1c3.77-4.79,6.17-11,6.35-18.69v-1.38c0.05-4.6-0.64-8.7-2.02-12.29h4.83
	c0.92,4.51,1.43,9.07,1.43,13.67C1628.23,1011.16,1621.7,1029.34,1607.66,1042.88z"/>
<g>
	<path d="M127.09,1214.58c-5.64,11.19-13.74,20.09-24.29,26.71c-10.92,6.89-22.81,10.33-35.7,10.33c-9.13,0-17.8-1.74-26.03-5.23
		c-8.05-3.4-15.17-8.18-21.34-14.36c-6.26-6.26-11.09-13.37-14.49-21.34c-3.49-8.32-5.23-17.04-5.23-26.17
		c0-9.04,1.74-17.71,5.23-26.04c3.4-8.05,8.23-15.17,14.49-21.34c6.18-6.17,13.29-10.96,21.34-14.36
		c8.23-3.58,16.91-5.37,26.03-5.37c12.89,0,24.78,3.44,35.7,10.33c10.56,6.71,18.65,15.66,24.29,26.84l-13.16,5.64
		c-4.47-8.59-10.82-15.43-19.05-20.53c-8.5-5.28-17.77-7.92-27.79-7.92c-7.16,0-14,1.39-20.53,4.16
		c-6.36,2.68-11.95,6.44-16.77,11.27c-4.92,4.92-8.68,10.51-11.27,16.77c-2.78,6.53-4.16,13.38-4.16,20.53
		c0,7.16,1.38,14.01,4.16,20.53c2.59,6.35,6.35,11.95,11.27,16.77c4.83,4.92,10.42,8.72,16.77,11.41
		c6.53,2.77,13.37,4.16,20.53,4.16c10.02,0,19.28-2.64,27.79-7.92c8.23-5.19,14.58-12.08,19.05-20.67L127.09,1214.58z"/>
	<path d="M254.47,1250.01h-13.82v-79.32c0-10.82-3.8-20.08-11.4-27.78c-7.79-7.69-17.09-11.54-27.92-11.54
		c-10.82,0-20.13,3.85-27.92,11.54c-7.6,7.69-11.4,16.96-11.4,27.78v79.32h-13.82v-192.99H162v77.3
		c9.93-10.82,23.04-16.42,39.32-16.77c14.67,0,27.2,5.19,37.58,15.57c10.37,10.38,15.56,22.9,15.56,37.58V1250.01z"/>
	<path d="M292.85,1086.69c-2.06-1.97-3.08-4.38-3.08-7.25c0-2.95,1.02-5.41,3.08-7.38c1.97-2.06,4.39-3.09,7.25-3.09
		c2.95,0,5.41,1.03,7.38,3.09c2.06,1.97,3.09,4.43,3.09,7.38c0,2.87-1.03,5.28-3.09,7.25c-1.97,2.06-4.43,3.08-7.38,3.08
		C297.24,1089.77,294.82,1088.74,292.85,1086.69z M293.26,1119.03h13.82v130.99h-13.82V1119.03z"/>
	<path d="M345.6,1057.03h13.96v192.99H345.6V1057.03z"/>
	<path d="M454.17,1251.76c-18.52,0-34.31-6.58-47.37-19.73c-13.16-13.06-19.73-28.85-19.73-47.37c0-18.61,6.58-34.44,19.73-47.51
		c13.06-13.15,28.85-19.73,47.37-19.73c21.2,0,39.01,8.54,53.41,25.63v-23.89h13.82v130.85h-13.82v-23.89
		C493.44,1243.21,475.64,1251.76,454.17,1251.76z M454.17,1131.11c-14.67,0-27.24,5.23-37.71,15.7
		c-10.38,10.47-15.57,23.04-15.57,37.71c0,14.68,5.19,27.24,15.57,37.71c10.47,10.38,23.04,15.57,37.71,15.57
		s27.29-5.19,37.85-15.57c10.37-10.47,15.56-23.04,15.56-37.71c0-14.67-5.19-27.24-15.56-37.71
		C481.45,1136.34,468.84,1131.11,454.17,1131.11z"/>
	<path d="M666.48,1250.01h-13.82v-79.18c0-10.82-3.85-20.13-11.54-27.91c-7.7-7.69-16.96-11.54-27.78-11.54
		c-10.83,0-20.13,3.85-27.92,11.54c-7.7,7.78-11.54,17.09-11.54,27.91v79.18h-13.82v-130.99h13.82v15.3
		c10.29-11.09,23.44-16.68,39.46-16.77c14.67,0,27.15,5.23,37.44,15.7c10.47,10.29,15.7,22.82,15.7,37.58V1250.01z"/>
	<path d="M817.13,1132.99h-25.1c16.37,13.96,24.73,31.45,25.1,52.47c0,18.43-6.49,34.09-19.46,46.97
		c-12.97,13.06-28.63,19.59-46.97,19.59c-2.6,0-6.26-0.36-11-1.07l-26.04,37.45h73.14v13.96h-99.58l38.25-55.29
		c-13.69-6.53-23.93-15.12-30.73-25.77c-6.98-10.82-10.47-22.77-10.47-35.83c0-18.34,6.48-33.95,19.46-46.84
		c12.98-13.06,28.63-19.59,46.97-19.59h66.43V1132.99z M750.7,1238.07c14.49,0,26.88-5.1,37.17-15.3
		c10.29-10.38,15.43-22.82,15.43-37.31c0-14.4-5.15-26.79-15.43-37.17c-10.29-10.2-22.68-15.3-37.17-15.3
		c-14.5,0-26.89,5.1-37.17,15.3c-10.29,10.38-15.43,22.77-15.43,37.17c0,14.49,5.14,26.93,15.43,37.31
		C723.81,1232.97,736.2,1238.07,750.7,1238.07z"/>
	<path d="M901.2,1251.76c-18.52,0-34.31-6.58-47.37-19.73c-13.16-13.06-19.73-28.85-19.73-47.37c0-18.61,6.58-34.44,19.73-47.51
		c13.06-13.15,28.85-19.73,47.37-19.73c21.2,0,39.01,8.54,53.41,25.63v-23.89h13.82v130.85h-13.82v-23.89
		C940.48,1243.21,922.68,1251.76,901.2,1251.76z M901.2,1131.11c-14.67,0-27.24,5.23-37.71,15.7
		c-10.38,10.47-15.57,23.04-15.57,37.71c0,14.68,5.19,27.24,15.57,37.71c10.47,10.38,23.04,15.57,37.71,15.57
		s27.29-5.19,37.85-15.57c10.37-10.47,15.56-23.04,15.56-37.71c0-14.67-5.19-27.24-15.56-37.71
		C928.49,1136.34,915.88,1131.11,901.2,1131.11z"/>
</g>
</svg>
