<?xml version="1.0" encoding="utf-8"?>
<!-- Generator: Adobe Illustrator 24.2.1, SVG Export Plug-In . SVG Version: 6.00 Build 0)  -->
<svg version="1.1" id="Layer_1" xmlns="http://www.w3.org/2000/svg" xmlns:xlink="http://www.w3.org/1999/xlink" x="0px" y="0px"
	 viewBox="0 0 1920 1920" style="enable-background:new 0 0 1920 1920;" xml:space="preserve">
<style type="text/css">
	.st0{fill:#D67832;}
	.st1{fill:#E6E7E8;}
	.st2{fill:#FFD522;}
	.st3{fill:#FFFFFF;}
	.st4{fill:#333333;}
	.st5{fill:#E06363;}
	.st6{fill:#963030;}
	.st7{fill:#34BEC1;}
	.st8{fill:#3434A5;}
</style>
<g>
	<g>
		<path d="M414.17,1281.72h92.11c50.43,0,79.24,9.08,107.04,33.13c22.64,19.97,36.53,49.46,36.53,77.6
			c0,21.33-8.24,44.93-21.61,63.08c-11.84,14.98-23.16,23.6-45.8,34.94l75.14,93.94h-99.84l-59.69-87.13v87.13h-83.88V1281.72z
			 M518.64,1435.56c26.76,0,47.34-18.61,47.34-42.2c0-23.14-20.58-40.84-47.86-40.84h-20.07v83.05H518.64z"/>
	</g>
	<g>
		<path d="M671.7,1396.53v-19.51c0-56.73,50.95-102.56,113.73-102.56c33.45,0,67.41,14.07,88.51,37.21
			c18.01,19.97,25.22,39.48,25.22,69.89v202.85h-83.88v-117.08h-59.69v117.08H671.7v-117.08 M815.28,1379.29
			c0-21.78-10.3-33.13-29.85-33.13c-19.04,0-29.85,12.25-29.85,33.13v17.24h59.69V1379.29z"/>
	</g>
	<g>
		<path d="M921.81,1281.72h69.47c67.42,0,107.55,12.25,144.09,44.02c33.96,29.04,51.46,65.8,51.46,107.55
			c0,42.2-18.01,79.87-52.49,108.91c-37.56,31.31-74.1,42.2-143.57,42.2h-68.96V1281.72z M1005.69,1514.52
			c29.85-0.45,47.86-5.9,66.38-20.42c19.56-14.98,30.88-38.12,30.88-61.26c0-23.14-11.84-45.83-32.42-61.26
			c-18.01-13.16-34.48-18.15-64.84-19.06V1514.52z"/>
	</g>
	<g>
		<path d="M1199.2,1584.41v-302.69h83.88v302.69H1199.2z"/>
	</g>
	<g>
		<path d="M1614.9,1435.56c0,84.86-73.23,156.11-160.19,156.11c-87.88,0-159.28-71.25-159.28-158.83
			c0-87.58,70.94-158.38,159.28-158.38C1544.42,1274.46,1614.9,1345.25,1614.9,1435.56z M1370.03,1432.83
			c0,47.65,38.45,87.13,85.13,87.13c45.77,0,85.13-39.48,85.13-85.77c0-49.01-37.53-88.04-85.13-88.04
			S1370.03,1384.28,1370.03,1432.83z"/>
	</g>
</g>
<g>
	<path d="M544.1,1815.33c-6.73,13.34-16.38,23.95-28.97,31.85c-13.02,8.22-27.21,12.32-42.58,12.32c-10.88,0-21.23-2.08-31.04-6.24
		c-9.6-4.05-18.09-9.76-25.45-17.13c-7.47-7.47-13.23-15.95-17.28-25.45c-4.17-9.92-6.24-20.32-6.24-31.21
		c0-10.78,2.08-21.12,6.24-31.05c4.05-9.6,9.81-18.09,17.28-25.45c7.36-7.36,15.85-13.07,25.45-17.13c9.81-4.27,20.16-6.4,31.04-6.4
		c15.37,0,29.56,4.11,42.58,12.32c12.59,8,22.24,18.67,28.97,32.01l-15.69,6.72c-5.33-10.24-12.91-18.41-22.72-24.49
		c-10.14-6.29-21.19-9.44-33.14-9.44c-8.53,0-16.69,1.66-24.48,4.96c-7.58,3.2-14.25,7.68-20,13.44c-5.87,5.87-10.36,12.54-13.44,20
		c-3.31,7.79-4.96,15.95-4.96,24.49c0,8.54,1.65,16.7,4.96,24.49c3.09,7.58,7.57,14.25,13.44,20c5.76,5.87,12.42,10.4,20,13.61
		c7.79,3.31,15.95,4.96,24.48,4.96c11.95,0,23-3.15,33.14-9.44c9.81-6.19,17.39-14.4,22.72-24.65L544.1,1815.33z"/>
	<path d="M695.99,1857.58h-16.49V1763c0-12.91-4.53-23.95-13.6-33.13c-9.28-9.18-20.38-13.76-33.29-13.76s-24.01,4.59-33.29,13.76
		c-9.07,9.18-13.6,20.22-13.6,33.13v94.59h-16.49v-230.15h16.49v92.19c11.84-12.91,27.47-19.58,46.89-20
		c17.5,0,32.44,6.19,44.81,18.56c12.37,12.38,18.56,27.31,18.56,44.81V1857.58z"/>
	<path d="M741.77,1662.81c-2.46-2.35-3.68-5.23-3.68-8.64c0-3.52,1.22-6.45,3.68-8.8c2.35-2.45,5.23-3.68,8.64-3.68
		c3.52,0,6.46,1.23,8.8,3.68c2.46,2.35,3.68,5.28,3.68,8.8c0,3.42-1.23,6.3-3.68,8.64c-2.34,2.45-5.28,3.68-8.8,3.68
		C747,1666.49,744.12,1665.26,741.77,1662.81z M742.25,1701.38h16.49v156.21h-16.49V1701.38z"/>
	<path d="M804.67,1627.44h16.64v230.15h-16.64V1627.44z"/>
	<path d="M934.14,1859.66c-22.09,0-40.92-7.84-56.49-23.53c-15.69-15.57-23.53-34.41-23.53-56.49c0-22.19,7.84-41.08,23.53-56.65
		c15.58-15.69,34.41-23.53,56.49-23.53c25.29,0,46.52,10.19,63.7,30.57v-28.49h16.49v156.05h-16.49v-28.49
		C980.98,1849.47,959.75,1859.66,934.14,1859.66z M934.14,1715.78c-17.5,0-32.49,6.24-44.97,18.72
		c-12.38,12.48-18.57,27.47-18.57,44.97c0,17.5,6.19,32.49,18.57,44.97c12.48,12.38,27.47,18.57,44.97,18.57
		c17.5,0,32.54-6.19,45.13-18.57c12.37-12.49,18.56-27.47,18.56-44.97c0-17.5-6.19-32.49-18.56-44.97
		C966.68,1722.03,951.64,1715.78,934.14,1715.78z"/>
	<path d="M1187.34,1857.58h-16.49v-94.43c0-12.91-4.59-24.01-13.76-33.29c-9.18-9.18-20.22-13.76-33.13-13.76
		c-12.91,0-24.01,4.59-33.29,13.76c-9.18,9.28-13.76,20.38-13.76,33.29v94.43h-16.49v-156.21h16.49v18.25
		c12.27-13.23,27.95-19.9,47.05-20c17.5,0,32.38,6.24,44.65,18.72c12.48,12.27,18.72,27.21,18.72,44.81V1857.58z"/>
	<path d="M1366.99,1718.02h-29.93c19.52,16.65,29.5,37.51,29.93,62.58c0,21.98-7.74,40.65-23.21,56.02
		c-15.47,15.58-34.14,23.36-56.01,23.36c-3.09,0-7.47-0.43-13.12-1.28l-31.05,44.65h87.23V1920h-118.76l45.61-65.94
		c-16.32-7.79-28.54-18.03-36.65-30.73c-8.32-12.91-12.48-27.15-12.48-42.73c0-21.87,7.73-40.49,23.2-55.85
		c15.47-15.58,34.15-23.37,56.02-23.37h79.22V1718.02z M1287.77,1843.34c17.28,0,32.06-6.08,44.33-18.25
		c12.27-12.38,18.41-27.21,18.41-44.49c0-17.18-6.14-31.95-18.41-44.33c-12.27-12.16-27.05-18.25-44.33-18.25
		c-17.29,0-32.06,6.08-44.33,18.25c-12.28,12.38-18.41,27.15-18.41,44.33c0,17.29,6.13,32.12,18.41,44.49
		C1255.7,1837.26,1270.48,1843.34,1287.77,1843.34z"/>
	<path d="M1467.25,1859.66c-22.09,0-40.92-7.84-56.49-23.53c-15.69-15.57-23.53-34.41-23.53-56.49c0-22.19,7.84-41.08,23.53-56.65
		c15.58-15.69,34.41-23.53,56.49-23.53c25.29,0,46.52,10.19,63.7,30.57v-28.49h16.49v156.05h-16.49v-28.49
		C1514.09,1849.47,1492.86,1859.66,1467.25,1859.66z M1467.25,1715.78c-17.5,0-32.49,6.24-44.97,18.72
		c-12.38,12.48-18.57,27.47-18.57,44.97c0,17.5,6.19,32.49,18.57,44.97c12.48,12.38,27.47,18.57,44.97,18.57s32.54-6.19,45.13-18.57
		c12.37-12.49,18.56-27.47,18.56-44.97c0-17.5-6.19-32.49-18.56-44.97C1499.79,1722.03,1484.75,1715.78,1467.25,1715.78z"/>
</g>
<g>
	<path class="st0" d="M907.79,394.2v56.31H737.6c-8.39-190.91,39.86-368.92,113.88-428.99V394.2H907.79z"/>
	<path class="st1" d="M907.79,0v394.2h-56.31V21.53C868.99,7.28,887.74-0.27,907.79,0z"/>
	<path class="st0" d="M1243.27,450.52h-170.19V394.2h56.31V21.53C1203.41,81.59,1251.66,259.61,1243.27,450.52z"/>
	<path class="st1" d="M1129.39,21.53V394.2h-56.31V0C1093.12-0.27,1111.88,7.28,1129.39,21.53z"/>
	<path class="st0" d="M634.96,675.77h-9.64v-56.31C625.32,639.23,628.7,658.19,634.96,675.77z"/>
	<path class="st0" d="M1244.78,450.52v4.25c-1.81-1.44-3.63-2.88-5.44-4.25H1244.78z"/>
	<path class="st0" d="M634.96,675.77h-9.64v-56.31C625.32,639.23,628.7,658.19,634.96,675.77z"/>
	<path class="st2" d="M1582.66,957.34h-563.14V769.63c55.32,0.98,112.91-38.23,112.63-93.86h281.57L1582.66,957.34z"/>
	<g>
		<path class="st0" d="M1582.66,957.34c0.41,94.01-77.88,169.58-168.94,168.94c-109.23-7.41-577.83,18.49-674.53-20.71
			c-63.19-18.96-110.43-73.84-113.68-139.73c-0.66-7.58,0.08-338.11-0.19-346.41c-0.63-91.04,74.93-169.35,168.94-168.93
			c0,0,445.07,0,445.07,0c76.71,57.44,134.7,138.05,174.39,225.26c-94.65,0.03-379.45-0.03-450.52,0
			c-51.94,0-49.87-64.45-55.63-12.83c-7.51,67.95,45.49,125.46,111.94,125.46v168.94H1582.66z"/>
	</g>
	<path class="st3" d="M906.89,685.16c-1.28,74.53,75.2,130.58,145.79,107.62c-17.04-9.35-26.82-21.02-31.14-33.19
		c4.32,12.17,14.11,23.83,31.14,33.19c35.54-10.89,63.57-38.92,74.46-74.46c3.25-10.51,5.01-21.65,5.01-33.16
		C1129.64,537.13,909.42,537.12,906.89,685.16z M1037.39,702.52c14.82-14.67,36.39-22.5,56.56-15.34
		C1073.79,680.03,1052.22,687.85,1037.39,702.52z"/>
	<path class="st4" d="M1272.93,607.73c0,24.67-19.91,44.58-44.58,44.58H916.28v89.16H782.53c-57.86,0.9-57.87-90.07,0-89.16
		c0,0,44.58,0,44.58,0c-1.75-34.15-3.72-89.96,44.59-89.16c0,0,356.65,0,356.65,0C1253.02,563.14,1272.93,583.06,1272.93,607.73z"/>
	<path class="st4" d="M1018.64,675.15c-1.07-73.07,113.7-73.07,112.63,0.01C1132.33,748.21,1017.56,748.21,1018.64,675.15z"/>
	<path class="st5" d="M653.48,394.2h619.46c15.49,0,28.16,12.67,28.16,28.16c0,15.49-12.67,28.16-28.16,28.16H653.48
		C617.15,450.98,616.84,393.73,653.48,394.2z"/>
	<path class="st5" d="M653.48,450.52h619.46c15.49,0,28.16,12.67,28.16,28.16c0,15.49-12.67,28.16-28.16,28.16H653.48
		C617.15,507.29,616.84,450.05,653.48,450.52z"/>
	<path class="st2" d="M737.95,563.14V788.4H437.61c-178.74-4.35-150.83-314.23-150.17-450.51
		C482.73,354.84,729.68,249.91,737.95,563.14z"/>
	<g>
		<path class="st6" d="M681.63,858.79c-3.16,185.06-278.44,185.03-281.57-0.01C403.22,673.73,678.5,673.76,681.63,858.79z"/>
		<path class="st7" d="M646.44,823.6c-0.62,138.09-210.58,138.08-211.18-0.01C435.88,685.51,645.84,685.52,646.44,823.6z"/>
		<path class="st8" d="M505.65,1069.97c-19.36,0-35.2-15.84-35.2-35.2V893.99c0-19.36,15.84-35.2,35.2-35.2
			c19.36,0,35.2,15.84,35.2,35.2v140.79C540.85,1054.13,525.01,1069.97,505.65,1069.97z"/>
		<path class="st8" d="M576.05,858.79c19.36,0,35.2,15.84,35.2,35.2v140.79c0,19.36-15.84,35.2-35.2,35.2
			c-19.36,0-35.2-15.84-35.2-35.2V893.99C540.85,874.63,556.69,858.79,576.05,858.79z"/>
	</g>
	<path class="st7" d="M1526.35,957.34c-1.07-73.07,113.7-73.07,112.63,0.01C1640.04,1030.41,1525.27,1030.41,1526.35,957.34z"/>
	<path class="st1" d="M1470.03,1098.13c-2.37,48.85-6.36,128.45-56.31,140.79c0.13-3.01-0.09-133.47,0-140.79
		C1413.21,1061.63,1470.54,1061.59,1470.03,1098.13z"/>
	<path class="st8" d="M935.05,563.14c-15.55,0-28.16-12.61-28.16-28.16V366.04c0-15.55,12.61-28.16,28.16-28.16
		c15.55,0,28.16,12.61,28.16,28.16v168.94C963.21,550.54,950.6,563.14,935.05,563.14z"/>
	<path class="st8" d="M991.36,337.89c15.55,0,28.16,12.61,28.16,28.16v168.94c0,15.55-12.61,28.16-28.16,28.16
		c-15.55,0-28.16-12.61-28.16-28.16V366.04C963.21,350.49,975.81,337.89,991.36,337.89z"/>
	<path class="st8" d="M1047.68,337.89c15.55,0,28.16,12.61,28.16,28.16v168.94c0,15.55-12.61,28.16-28.16,28.16
		c-15.55,0-28.16-12.61-28.16-28.16V366.04C1019.52,350.49,1032.13,337.89,1047.68,337.89z"/>
	<path class="st7" d="M851.48,197.1c-0.53-36.53,56.85-36.53,56.31,0C908.32,233.63,850.94,233.63,851.48,197.1z"/>
	<path class="st7" d="M1073.08,197.1c-0.53-36.53,56.85-36.53,56.31,0C1129.92,233.63,1072.54,233.63,1073.08,197.1z"/>
</g>
</svg>
