<?xml version="1.0" encoding="utf-8"?>
<!-- Generator: Adobe Illustrator 24.2.1, SVG Export Plug-In . SVG Version: 6.00 Build 0)  -->
<svg version="1.1" id="Layer_1" xmlns="http://www.w3.org/2000/svg" xmlns:xlink="http://www.w3.org/1999/xlink" x="0px" y="0px"
	 viewBox="0 0 1920 1920" style="enable-background:new 0 0 1920 1920;" xml:space="preserve">
<style type="text/css">
	.st0{fill:#FFFFFF;}
</style>
<g>
	<g>
		<path class="st0" d="M0,462.6h147.3c80.6,0,126.7,14.5,171.2,53c36.2,31.9,58.4,79.1,58.4,124.1c0,34.1-13.2,71.8-34.6,100.9
			c-18.9,24-37,37.7-73.2,55.9l120.1,150.2H229.6l-95.4-139.3v139.3H0V462.6z M167,708.6c42.8,0,75.7-29.8,75.7-67.5
			c0-37-32.9-65.3-76.5-65.3h-32.1v132.8H167z"/>
	</g>
	<g>
		<path class="st0" d="M411.8,646.2V615c0-90.7,81.5-164,181.9-164c53.5,0,107.8,22.5,141.5,59.5c28.8,31.9,40.3,63.1,40.3,111.8
			v324.4H641.4V759.4h-95.5v187.2H411.8V759.4 M641.4,618.6c0-34.8-16.5-53-47.7-53c-30.5,0-47.7,19.6-47.7,53v27.6h95.5
			L641.4,618.6L641.4,618.6z"/>
	</g>
	<g>
		<path class="st0" d="M811.7,462.6h111.1c107.8,0,172,19.6,230.4,70.4c54.3,46.4,82.3,105.2,82.3,172c0,67.5-28.8,127.7-83.9,174.2
			c-60.1,50.1-118.5,67.5-229.6,67.5H811.7V462.6z M945.8,834.9c47.7-0.7,76.5-9.4,106.2-32.7c31.3-24,49.4-61,49.4-98
			s-18.9-73.3-51.8-98c-28.8-21-55.1-29-103.7-30.5L945.8,834.9L945.8,834.9z"/>
	</g>
	<g>
		<path class="st0" d="M1255.3,946.6v-484h134.1v484H1255.3z"/>
	</g>
	<g>
		<path class="st0" d="M1920,708.6c0,135.7-117.1,249.6-256.2,249.6c-140.5,0-254.7-113.9-254.7-254S1522.6,451,1663.8,451
			C1807.3,451,1920,564.2,1920,708.6z M1528.4,704.2c0,76.2,61.5,139.3,136.1,139.3c73.2,0,136.1-63.1,136.1-137.1
			c0-78.4-60-140.8-136.1-140.8C1588.5,565.6,1528.4,626.6,1528.4,704.2z"/>
	</g>
</g>
<g>
	<path class="st0" d="M238.1,1305.1c-10.6,20.9-25.7,37.6-45.5,50c-20.4,12.9-42.7,19.4-66.9,19.4c-17.1,0-33.3-3.3-48.8-9.8
		c-15.1-6.4-28.4-15.3-40-26.9c-11.7-11.7-20.8-25.1-27.1-40c-6.5-15.6-9.8-31.9-9.8-49c0-16.9,3.3-33.2,9.8-48.8
		c6.4-15.1,15.4-28.4,27.1-40c11.6-11.6,24.9-20.5,40-26.9c15.4-6.7,31.7-10.1,48.8-10.1c24.1,0,46.4,6.4,66.9,19.4
		c19.8,12.6,34.9,29.3,45.5,50.3l-24.6,10.6c-8.4-16.1-20.3-28.9-35.7-38.5c-15.9-9.9-33.3-14.8-52.1-14.8
		c-13.4,0-26.2,2.6-38.5,7.8c-11.9,5-22.4,12.1-31.4,21.1c-9.2,9.2-16.3,19.7-21.1,31.4c-5.2,12.2-7.8,25.1-7.8,38.5
		c0,13.4,2.6,26.2,7.8,38.5c4.8,11.9,11.9,22.4,21.1,31.4c9,9.2,19.5,16.3,31.4,21.4c12.2,5.2,25,7.8,38.5,7.8
		c18.8,0,36.1-4.9,52.1-14.8c15.4-9.7,27.3-22.6,35.7-38.7L238.1,1305.1z"/>
	<path class="st0" d="M476.6,1371.4h-25.9v-148.6c0-20.3-7.1-37.6-21.4-52c-14.6-14.4-32-21.6-52.3-21.6s-37.7,7.2-52.3,21.6
		c-14.2,14.4-21.4,31.8-21.4,52v148.6h-25.9v-361.5h25.9v144.8c18.6-20.3,43.1-30.8,73.6-31.4c27.5,0,51,9.7,70.4,29.2
		c19.4,19.4,29.1,42.9,29.1,70.4V1371.4z"/>
	<path class="st0" d="M548.5,1065.5c-3.9-3.7-5.8-8.2-5.8-13.6c0-5.5,1.9-10.1,5.8-13.8c3.7-3.9,8.2-5.8,13.6-5.8
		c5.5,0,10.1,1.9,13.8,5.8c3.9,3.7,5.8,8.3,5.8,13.8c0,5.4-1.9,9.9-5.8,13.6c-3.7,3.9-8.3,5.8-13.8,5.8
		C556.8,1071.3,552.2,1069.3,548.5,1065.5z M549.3,1126.1h25.9v245.3h-25.9V1126.1z"/>
	<path class="st0" d="M647.3,1009.9h26.1v361.5h-26.1V1009.9z"/>
	<path class="st0" d="M850.7,1374.7c-34.7,0-64.3-12.3-88.7-36.9c-24.6-24.5-37-54-37-88.7c0-34.9,12.3-64.5,37-89
		c24.5-24.6,54-36.9,88.7-36.9c39.7,0,73.1,16,100,48v-44.8h25.9v245.1h-25.9v-44.8C924.3,1358.7,890.9,1374.7,850.7,1374.7z
		 M850.7,1148.7c-27.5,0-51,9.8-70.6,29.4c-19.4,19.6-29.2,43.2-29.2,70.6s9.7,51,29.2,70.6c19.6,19.4,43.2,29.2,70.6,29.2
		s51.1-9.7,70.9-29.2c19.4-19.6,29.2-43.2,29.2-70.6c0-27.5-9.7-51-29.2-70.6C901.8,1158.5,878.2,1148.7,850.7,1148.7z"/>
	<path class="st0" d="M1248.4,1371.4h-25.9v-148.3c0-20.3-7.2-37.7-21.6-52.3c-14.4-14.4-31.8-21.6-52-21.6
		c-20.3,0-37.7,7.2-52.3,21.6c-14.4,14.6-21.6,32-21.6,52.3v148.3h-25.9v-245.3h25.9v28.7c19.3-20.8,43.9-31.3,73.9-31.4
		c27.5,0,50.8,9.8,70.1,29.4c19.6,19.3,29.4,42.7,29.4,70.4V1371.4z"/>
	<path class="st0" d="M1530.6,1152.2h-47c30.7,26.2,46.3,58.9,47,98.3c0,34.5-12.2,63.8-36.5,88c-24.3,24.5-53.6,36.7-88,36.7
		c-4.9,0-11.7-0.7-20.6-2l-48.8,70.1h137v26.1h-186.5l71.6-103.6c-25.6-12.2-44.8-28.3-57.6-48.3c-13.1-20.3-19.6-42.7-19.6-67.1
		c0-34.3,12.1-63.6,36.4-87.7c24.3-24.5,53.6-36.7,88-36.7h124.4L1530.6,1152.2L1530.6,1152.2z M1406.2,1349
		c27.1,0,50.3-9.6,69.6-28.7c19.3-19.4,28.9-42.7,28.9-69.9c0-27-9.6-50.2-28.9-69.6c-19.3-19.1-42.5-28.7-69.6-28.7
		c-27.2,0-50.4,9.6-69.6,28.7c-19.3,19.4-28.9,42.7-28.9,69.6c0,27.2,9.6,50.4,28.9,69.9C1355.8,1339.5,1379,1349,1406.2,1349z"/>
	<path class="st0" d="M1688.1,1374.7c-34.7,0-64.3-12.3-88.7-36.9c-24.6-24.5-37-54-37-88.7c0-34.9,12.3-64.5,37-89
		c24.5-24.6,54-36.9,88.7-36.9c39.7,0,73.1,16,100.1,48v-44.8h25.9v245.1h-25.9v-44.8C1761.7,1358.7,1728.3,1374.7,1688.1,1374.7z
		 M1688.1,1148.7c-27.5,0-51,9.8-70.6,29.4c-19.4,19.6-29.2,43.2-29.2,70.6s9.7,51,29.2,70.6c19.6,19.4,43.2,29.2,70.6,29.2
		c27.5,0,51.1-9.7,70.9-29.2c19.4-19.6,29.2-43.2,29.2-70.6c0-27.5-9.7-51-29.2-70.6C1739.2,1158.5,1715.6,1148.7,1688.1,1148.7z"/>
</g>
</svg>
