<?xml version="1.0" encoding="utf-8"?>
<!-- Generator: Adobe Illustrator 24.2.1, SVG Export Plug-In . SVG Version: 6.00 Build 0)  -->
<svg version="1.1" id="Layer_1" xmlns="http://www.w3.org/2000/svg" xmlns:xlink="http://www.w3.org/1999/xlink" x="0px" y="0px"
	 viewBox="0 0 1920 1920" style="enable-background:new 0 0 1920 1920;" xml:space="preserve">
<g>
	<g>
		<g>
			<path d="M414.17,1281.72h92.11c50.43,0,79.24,9.08,107.04,33.13c22.64,19.97,36.53,49.46,36.53,77.6
				c0,21.33-8.24,44.93-21.61,63.08c-11.84,14.98-23.16,23.6-45.8,34.94l75.14,93.94h-99.84l-59.69-87.13v87.13h-83.88V1281.72z
				 M518.64,1435.56c26.76,0,47.34-18.61,47.34-42.2c0-23.14-20.58-40.84-47.86-40.84h-20.07v83.05H518.64z"/>
		</g>
		<g>
			<path d="M671.7,1396.53v-19.51c0-56.73,50.95-102.56,113.73-102.56c33.45,0,67.41,14.07,88.51,37.21
				c18.01,19.97,25.22,39.48,25.22,69.89v202.85h-83.88v-117.08h-59.69v117.08H671.7v-117.08 M815.28,1379.29
				c0-21.78-10.3-33.13-29.85-33.13c-19.04,0-29.85,12.25-29.85,33.13v17.24h59.69V1379.29z"/>
		</g>
		<g>
			<path d="M921.81,1281.72h69.47c67.42,0,107.55,12.25,144.09,44.02c33.96,29.04,51.46,65.8,51.46,107.55
				c0,42.2-18.01,79.87-52.49,108.91c-37.56,31.31-74.1,42.2-143.57,42.2h-68.96V1281.72z M1005.69,1514.52
				c29.85-0.45,47.86-5.9,66.38-20.42c19.56-14.98,30.88-38.12,30.88-61.26c0-23.14-11.84-45.83-32.42-61.26
				c-18.01-13.16-34.48-18.15-64.84-19.06V1514.52z"/>
		</g>
		<g>
			<path d="M1199.2,1584.41v-302.69h83.88v302.69H1199.2z"/>
		</g>
		<g>
			<path d="M1614.9,1435.56c0,84.86-73.23,156.11-160.19,156.11c-87.88,0-159.28-71.25-159.28-158.83
				c0-87.58,70.94-158.38,159.28-158.38C1544.42,1274.46,1614.9,1345.25,1614.9,1435.56z M1370.03,1432.83
				c0,47.65,38.45,87.13,85.13,87.13c45.77,0,85.13-39.48,85.13-85.77c0-49.01-37.53-88.04-85.13-88.04
				S1370.03,1384.28,1370.03,1432.83z"/>
		</g>
	</g>
	<path d="M1532.69,878.28l-135.37-225.64c-28.72-63.08-67.42-122.65-116.17-171.86c4.65-4.8,7.39-11.27,7.39-18.44
		c0-15.01-12.26-27.2-27.2-27.2c14.93,0,27.2-12.26,27.2-27.2c0-15.01-12.26-27.2-27.2-27.2h-27.88
		c-2.21-163.02-46.39-307.69-110.77-359.95c-16.91-13.79-35.04-21.03-54.39-20.8V341.9c-4.34-9.22-13.71-15.54-24.53-15.54
		c-15.01,0-27.2,12.11-27.2,27.2c0-15.08-12.19-27.2-27.2-27.2s-27.2,12.11-27.2,27.2c0-15.08-12.19-27.2-27.2-27.2
		s-27.2,12.11-27.2,27.2V0.01c-19.35-0.23-37.48,7.01-54.39,20.8c-64.45,52.26-108.63,196.92-110.77,359.95H696.7
		c-80.52-94.69-247.51-42.28-387.14-54.39c-0.61,126.76-25.6,409.08,126.84,433.46c-10.97,18.97-17.6,42.2-18.05,69.63
		c0.99,57.97,29.63,97.13,67.95,117.47v52.49c0,18.66,15.31,33.98,33.98,33.98c18.74,0,34.05-15.31,34.05-33.98
		c0,18.66,15.24,33.98,33.98,33.98c18.66,0,33.98-15.31,33.98-33.98v-52.56c4.95-2.51,9.67-5.41,14.17-8.68
		c5.33,61.25,50.05,111.83,109.39,129.58c93.4,37.86,545.98,12.87,651.49,20.04c0,39.23,0.08,106.65,0,108.78
		c42.43-10.51,50.51-71.23,53.48-117.77c46.85-16.38,84.86-54.09,101.09-101.85c29.94,4.11,63.53-13.33,63-52.34
		C1615.58,876.91,1565.15,861.44,1532.69,878.28z M1097.94,735.06c-3.05,2.89-6.09,5.64-9.22,8.08c-0.53,0.53-1.07,0.99-1.6,1.37
		c-11.12,9.52-24.15,16.76-38.47,21.18c-0.23-0.15-0.53-0.31-0.76-0.38c-10.44,3.12-20.95,4.57-31.31,4.42
		c-40.6-0.53-78.31-24.53-99.72-58.51v-81.21h102.16c-2.21,5.94-3.43,12.72-3.28,20.34v2.29c0.31,13.71,4.88,24.61,12.04,32.76
		c21.41,24.38,65.9,23.77,86.24-1.83c6.25-7.92,10.21-18.21,10.51-30.93v-2.29c0.08-7.62-1.07-14.4-3.35-20.34h8
		c1.52,7.47,2.36,15.01,2.36,22.63C1131.99,682.57,1121.17,712.66,1097.94,735.06z"/>
	<g>
		<path d="M544.1,1815.33c-6.73,13.34-16.38,23.95-28.97,31.85c-13.02,8.22-27.21,12.32-42.58,12.32c-10.88,0-21.23-2.08-31.04-6.24
			c-9.6-4.05-18.09-9.76-25.45-17.13c-7.47-7.47-13.23-15.95-17.28-25.45c-4.17-9.92-6.24-20.32-6.24-31.21
			c0-10.78,2.08-21.12,6.24-31.05c4.05-9.6,9.81-18.09,17.28-25.45c7.36-7.36,15.85-13.07,25.45-17.13
			c9.81-4.27,20.16-6.4,31.04-6.4c15.37,0,29.56,4.11,42.58,12.32c12.59,8,22.24,18.67,28.97,32.01l-15.69,6.72
			c-5.33-10.24-12.91-18.41-22.72-24.49c-10.14-6.29-21.19-9.44-33.14-9.44c-8.53,0-16.69,1.66-24.48,4.96
			c-7.58,3.2-14.25,7.68-20,13.44c-5.87,5.87-10.36,12.54-13.44,20c-3.31,7.79-4.96,15.95-4.96,24.49c0,8.54,1.65,16.7,4.96,24.49
			c3.09,7.58,7.57,14.25,13.44,20c5.76,5.87,12.42,10.4,20,13.61c7.79,3.31,15.95,4.96,24.48,4.96c11.95,0,23-3.15,33.14-9.44
			c9.81-6.19,17.39-14.4,22.72-24.65L544.1,1815.33z"/>
		<path d="M695.99,1857.58h-16.49V1763c0-12.91-4.53-23.95-13.6-33.13c-9.28-9.18-20.38-13.76-33.29-13.76s-24.01,4.59-33.29,13.76
			c-9.07,9.18-13.6,20.22-13.6,33.13v94.59h-16.49v-230.15h16.49v92.19c11.84-12.91,27.47-19.58,46.89-20
			c17.5,0,32.44,6.19,44.81,18.56c12.37,12.38,18.56,27.31,18.56,44.81V1857.58z"/>
		<path d="M741.77,1662.81c-2.46-2.35-3.68-5.23-3.68-8.64c0-3.52,1.22-6.45,3.68-8.8c2.35-2.45,5.23-3.68,8.64-3.68
			c3.52,0,6.46,1.23,8.8,3.68c2.46,2.35,3.68,5.28,3.68,8.8c0,3.42-1.23,6.3-3.68,8.64c-2.34,2.45-5.28,3.68-8.8,3.68
			C747,1666.49,744.12,1665.26,741.77,1662.81z M742.25,1701.38h16.49v156.21h-16.49V1701.38z"/>
		<path d="M804.67,1627.44h16.64v230.15h-16.64V1627.44z"/>
		<path d="M934.14,1859.66c-22.09,0-40.92-7.84-56.49-23.53c-15.69-15.57-23.53-34.41-23.53-56.49c0-22.19,7.84-41.08,23.53-56.65
			c15.58-15.69,34.41-23.53,56.49-23.53c25.29,0,46.52,10.19,63.7,30.57v-28.49h16.49v156.05h-16.49v-28.49
			C980.98,1849.47,959.75,1859.66,934.14,1859.66z M934.14,1715.78c-17.5,0-32.49,6.24-44.97,18.72
			c-12.38,12.48-18.57,27.47-18.57,44.97c0,17.5,6.19,32.49,18.57,44.97c12.48,12.38,27.47,18.57,44.97,18.57
			c17.5,0,32.54-6.19,45.13-18.57c12.37-12.49,18.56-27.47,18.56-44.97c0-17.5-6.19-32.49-18.56-44.97
			C966.68,1722.03,951.64,1715.78,934.14,1715.78z"/>
		<path d="M1187.34,1857.58h-16.49v-94.43c0-12.91-4.59-24.01-13.76-33.29c-9.18-9.18-20.22-13.76-33.13-13.76
			c-12.91,0-24.01,4.59-33.29,13.76c-9.18,9.28-13.76,20.38-13.76,33.29v94.43h-16.49v-156.21h16.49v18.25
			c12.27-13.23,27.95-19.9,47.05-20c17.5,0,32.38,6.24,44.65,18.72c12.48,12.27,18.72,27.21,18.72,44.81V1857.58z"/>
		<path d="M1366.99,1718.02h-29.93c19.52,16.65,29.5,37.51,29.93,62.58c0,21.98-7.74,40.65-23.21,56.02
			c-15.47,15.58-34.14,23.36-56.01,23.36c-3.09,0-7.47-0.43-13.12-1.28l-31.05,44.65h87.23V1920h-118.76l45.61-65.94
			c-16.32-7.79-28.54-18.03-36.65-30.73c-8.32-12.91-12.48-27.15-12.48-42.73c0-21.87,7.73-40.49,23.2-55.85
			c15.47-15.58,34.15-23.37,56.02-23.37h79.22V1718.02z M1287.77,1843.34c17.28,0,32.06-6.08,44.33-18.25
			c12.27-12.38,18.41-27.21,18.41-44.49c0-17.18-6.14-31.95-18.41-44.33c-12.27-12.16-27.05-18.25-44.33-18.25
			c-17.29,0-32.06,6.08-44.33,18.25c-12.28,12.38-18.41,27.15-18.41,44.33c0,17.29,6.13,32.12,18.41,44.49
			C1255.7,1837.26,1270.48,1843.34,1287.77,1843.34z"/>
		<path d="M1467.25,1859.66c-22.09,0-40.92-7.84-56.49-23.53c-15.69-15.57-23.53-34.41-23.53-56.49c0-22.19,7.84-41.08,23.53-56.65
			c15.58-15.69,34.41-23.53,56.49-23.53c25.29,0,46.52,10.19,63.7,30.57v-28.49h16.49v156.05h-16.49v-28.49
			C1514.09,1849.47,1492.86,1859.66,1467.25,1859.66z M1467.25,1715.78c-17.5,0-32.49,6.24-44.97,18.72
			c-12.38,12.48-18.57,27.47-18.57,44.97c0,17.5,6.19,32.49,18.57,44.97c12.48,12.38,27.47,18.57,44.97,18.57
			s32.54-6.19,45.13-18.57c12.37-12.49,18.56-27.47,18.56-44.97c0-17.5-6.19-32.49-18.56-44.97
			C1499.79,1722.03,1484.75,1715.78,1467.25,1715.78z"/>
	</g>
</g>
</svg>
