<?xml version="1.0" encoding="utf-8"?>
<!-- Generator: Adobe Illustrator 24.2.1, SVG Export Plug-In . SVG Version: 6.00 Build 0)  -->
<svg version="1.1" id="Layer_1" xmlns="http://www.w3.org/2000/svg" xmlns:xlink="http://www.w3.org/1999/xlink" x="0px" y="0px"
	 viewBox="0 0 1920 1920" style="enable-background:new 0 0 1920 1920;" xml:space="preserve">
<g>
	<g>
		<path d="M0,462.6h147.29c80.64,0,126.71,14.51,171.16,52.97c36.2,31.93,58.42,79.1,58.42,124.09c0,34.11-13.17,71.84-34.56,100.86
			c-18.93,23.95-37.03,37.73-73.24,55.87l120.15,150.21H229.58l-95.45-139.32v139.32H0V462.6z M167.04,708.6
			c42.79,0,75.71-29.75,75.71-67.49c0-37.01-32.92-65.31-76.53-65.31h-32.1V708.6H167.04z"/>
	</g>
	<g>
		<path d="M411.8,646.19v-31.2c0-90.71,81.46-164,181.85-164c53.48,0,107.79,22.5,141.52,59.5c28.8,31.93,40.33,63.13,40.33,111.75
			v324.36H641.38V759.39h-95.45v187.22H411.8V759.39 M641.38,618.62c0-34.83-16.46-52.97-47.73-52.97
			c-30.45,0-47.73,19.59-47.73,52.97v27.57h95.45V618.62z"/>
	</g>
	<g>
		<path d="M811.73,462.6h111.08c107.8,0,171.98,19.59,230.41,70.39c54.3,46.44,82.28,105.22,82.28,171.98
			c0,67.49-28.8,127.71-83.94,174.16c-60.06,50.07-118.49,67.49-229.58,67.49H811.73V462.6z M945.85,834.86
			c47.73-0.73,76.53-9.43,106.15-32.65c31.27-23.95,49.38-60.95,49.38-97.96s-18.93-73.29-51.84-97.96
			c-28.8-21.04-55.14-29.03-103.68-30.48V834.86z"/>
	</g>
	<g>
		<path d="M1255.29,946.61V462.6h134.13v484.01H1255.29z"/>
	</g>
	<g>
		<path d="M1920,708.6c0,135.7-117.09,249.62-256.15,249.62c-140.52,0-254.69-113.93-254.69-253.98s113.44-253.25,254.69-253.25
			C1807.3,450.99,1920,564.19,1920,708.6z M1528.45,704.24c0,76.19,61.48,139.32,136.13,139.32c73.18,0,136.13-63.13,136.13-137.15
			c0-78.37-60.01-140.78-136.13-140.78C1588.46,565.64,1528.45,626.6,1528.45,704.24z"/>
	</g>
</g>
<g>
	<path d="M238.06,1305.05c-10.56,20.95-25.73,37.63-45.5,50.02c-20.45,12.91-42.73,19.36-66.87,19.36c-17.1,0-33.35-3.27-48.76-9.8
		c-15.09-6.36-28.41-15.33-39.98-26.9c-11.73-11.73-20.78-25.05-27.14-39.97c-6.54-15.58-9.8-31.92-9.8-49.02
		c0-16.93,3.26-33.18,9.8-48.77c6.37-15.09,15.41-28.41,27.14-39.97c11.57-11.56,24.89-20.53,39.98-26.9
		c15.41-6.7,31.67-10.06,48.76-10.06c24.14,0,46.43,6.45,66.87,19.36c19.77,12.57,34.94,29.33,45.5,50.28l-24.64,10.56
		c-8.38-16.08-20.27-28.91-35.69-38.46c-15.93-9.89-33.28-14.83-52.05-14.83c-13.4,0-26.22,2.6-38.46,7.79
		c-11.91,5.02-22.38,12.06-31.42,21.12c-9.22,9.22-16.27,19.7-21.12,31.42c-5.2,12.23-7.79,25.06-7.79,38.46
		c0,13.41,2.59,26.23,7.79,38.46c4.85,11.9,11.9,22.38,21.12,31.42c9.04,9.22,19.51,16.34,31.42,21.37
		c12.23,5.19,25.05,7.79,38.46,7.79c18.77,0,36.12-4.94,52.05-14.83c15.41-9.72,27.31-22.62,35.69-38.71L238.06,1305.05z"/>
	<path d="M476.65,1371.41h-25.89v-148.57c0-20.27-7.12-37.62-21.36-52.03c-14.58-14.41-32.02-21.62-52.29-21.62
		s-37.71,7.2-52.29,21.62c-14.24,14.41-21.36,31.76-21.36,52.03v148.57h-25.89v-361.49h25.89v144.8
		c18.6-20.27,43.15-30.75,73.65-31.42c27.48,0,50.95,9.72,70.39,29.16c19.43,19.44,29.15,42.9,29.15,70.39V1371.41z"/>
	<path d="M548.55,1065.48c-3.86-3.69-5.77-8.21-5.77-13.58c0-5.53,1.92-10.14,5.77-13.82c3.69-3.86,8.21-5.78,13.58-5.78
		c5.53,0,10.14,1.93,13.82,5.78c3.86,3.69,5.78,8.3,5.78,13.82c0,5.37-1.93,9.89-5.78,13.58c-3.68,3.86-8.3,5.78-13.82,5.78
		C556.77,1071.25,552.24,1069.33,548.55,1065.48z M549.31,1126.06h25.89v245.35h-25.89V1126.06z"/>
	<path d="M647.35,1009.92h26.14v361.49h-26.14V1009.92z"/>
	<path d="M850.72,1374.68c-34.69,0-64.27-12.32-88.74-36.95c-24.64-24.46-36.96-54.04-36.96-88.74c0-34.86,12.32-64.52,36.96-88.99
		c24.47-24.64,54.04-36.95,88.74-36.95c39.72,0,73.07,16,100.05,48.01v-44.75h25.89v245.1h-25.89v-44.75
		C924.29,1358.68,890.94,1374.68,850.72,1374.68z M850.72,1148.69c-27.48,0-51.03,9.8-70.64,29.41
		c-19.44,19.61-29.17,43.15-29.17,70.64c0,27.49,9.72,51.03,29.17,70.64c19.61,19.44,43.15,29.16,70.64,29.16
		s51.11-9.72,70.89-29.16c19.43-19.61,29.15-43.15,29.15-70.64c0-27.48-9.72-51.03-29.15-70.64
		C901.83,1158.49,878.2,1148.69,850.72,1148.69z"/>
	<path d="M1248.42,1371.41h-25.89v-148.32c0-20.27-7.21-37.71-21.62-52.29c-14.42-14.41-31.76-21.62-52.03-21.62
		c-20.29,0-37.71,7.2-52.29,21.62c-14.42,14.58-21.62,32.01-21.62,52.29v148.32h-25.89v-245.35h25.89v28.66
		c19.27-20.78,43.9-31.25,73.91-31.42c27.48,0,50.85,9.8,70.13,29.41c19.61,19.27,29.41,42.74,29.41,70.39V1371.41z"/>
	<path d="M1530.6,1152.2h-47.01c30.66,26.15,46.33,58.91,47.01,98.29c0,34.53-12.15,63.85-36.46,87.99
		c-24.29,24.47-53.62,36.7-87.98,36.7c-4.86,0-11.73-0.67-20.61-2.01l-48.77,70.14h137.01v26.14h-186.53l71.64-103.57
		c-25.64-12.23-44.82-28.32-57.56-48.27c-13.08-20.27-19.61-42.65-19.61-67.12c0-34.35,12.14-63.6,36.45-87.73
		c24.31-24.47,53.64-36.7,87.99-36.7h124.44V1152.2z M1406.17,1349.04c27.14,0,50.35-9.55,69.63-28.66
		c19.27-19.44,28.91-42.74,28.91-69.89c0-26.98-9.64-50.19-28.91-69.63c-19.28-19.11-42.49-28.66-69.63-28.66
		c-27.16,0-50.36,9.55-69.63,28.66c-19.28,19.44-28.91,42.65-28.91,69.63c0,27.15,9.63,50.45,28.91,69.89
		C1355.8,1339.49,1379.01,1349.04,1406.17,1349.04z"/>
	<path d="M1688.09,1374.68c-34.69,0-64.27-12.32-88.74-36.95c-24.64-24.46-36.96-54.04-36.96-88.74c0-34.86,12.32-64.52,36.96-88.99
		c24.47-24.64,54.04-36.95,88.74-36.95c39.72,0,73.07,16,100.05,48.01v-44.75h25.89v245.1h-25.89v-44.75
		C1761.66,1358.68,1728.31,1374.68,1688.09,1374.68z M1688.09,1148.69c-27.48,0-51.03,9.8-70.64,29.41
		c-19.44,19.61-29.17,43.15-29.17,70.64c0,27.49,9.72,51.03,29.17,70.64c19.61,19.44,43.15,29.16,70.64,29.16
		c27.48,0,51.11-9.72,70.89-29.16c19.43-19.61,29.15-43.15,29.15-70.64c0-27.48-9.72-51.03-29.15-70.64
		C1739.2,1158.49,1715.57,1148.69,1688.09,1148.69z"/>
</g>
</svg>
